<svg width="24" height="24" viewBox="0 0 24 24" fill="none" xmlns="http://www.w3.org/2000/svg">
<g id="ic/balance">
<path id="Vector" d="M14.6646 8.17082C15.0351 8.35606 15.4856 8.20589 15.6708 7.83541C15.8561 7.46492 15.7059 7.01442 15.3354 6.82918L14.6646 8.17082ZM14.8446 7.42229L14.5092 8.09311L14.5092 8.09311L14.8446 7.42229ZM15.5303 16.0303C15.8232 15.7374 15.8232 15.2626 15.5303 14.9697C15.2374 14.6768 14.7626 14.6768 14.4697 14.9697L15.5303 16.0303ZM9.27639 8.44721L9.94721 8.78262L9.27639 8.44721ZM7 9.75C6.58579 9.75 6.25 10.0858 6.25 10.5C6.25 10.9142 6.58579 11.25 7 11.25V9.75ZM12 11.25C12.4142 11.25 12.75 10.9142 12.75 10.5C12.75 10.0858 12.4142 9.75 12 9.75V11.25ZM7 12.75C6.58579 12.75 6.25 13.0858 6.25 13.5C6.25 13.9142 6.58579 14.25 7 14.25V12.75ZM12 14.25C12.4142 14.25 12.75 13.9142 12.75 13.5C12.75 13.0858 12.4142 12.75 12 12.75V14.25ZM21.25 12C21.25 17.1086 17.1086 21.25 12 21.25V22.75C17.9371 22.75 22.75 17.9371 22.75 12H21.25ZM12 21.25C6.89137 21.25 2.75 17.1086 2.75 12H1.25C1.25 17.9371 6.06294 22.75 12 22.75V21.25ZM2.75 12C2.75 6.89137 6.89137 2.75 12 2.75V1.25C6.06294 1.25 1.25 6.06294 1.25 12H2.75ZM12 2.75C17.1086 2.75 21.25 6.89137 21.25 12H22.75C22.75 6.06294 17.9371 1.25 12 1.25V2.75ZM15.3354 6.82918L15.18 6.75147L14.5092 8.09311L14.6646 8.17082L15.3354 6.82918ZM13.0557 6.25H11.618V7.75H13.0557V6.25ZM8.25 9.61803V10.5H9.75V9.61803H8.25ZM8.25 10.5V13.5H9.75V10.5H8.25ZM8.25 13.5V13.9393H9.75V13.5H8.25ZM11.5607 17.25H12.5858V15.75H11.5607V17.25ZM12.5858 17.25C13.6902 17.25 14.7494 16.8113 15.5303 16.0303L14.4697 14.9697C13.97 15.4693 13.2924 15.75 12.5858 15.75V17.25ZM9.21967 16.2803C9.84054 16.9012 10.6826 17.25 11.5607 17.25V15.75C11.0804 15.75 10.6199 15.5592 10.2803 15.2197L9.21967 16.2803ZM8.25 13.9393C8.25 14.8174 8.5988 15.6595 9.21967 16.2803L10.2803 15.2197C9.94077 14.8801 9.75 14.4196 9.75 13.9393H8.25ZM8.60557 8.1118C8.37174 8.57947 8.25 9.09516 8.25 9.61803H9.75C9.75 9.32803 9.81752 9.04201 9.94721 8.78262L8.60557 8.1118ZM11.618 6.25C10.3423 6.25 9.17609 6.97077 8.60557 8.1118L9.94721 8.78262C10.2636 8.14976 10.9105 7.75 11.618 7.75V6.25ZM15.18 6.75147C14.5204 6.42169 13.7931 6.25 13.0557 6.25V7.75C13.5603 7.75 14.0579 7.86747 14.5092 8.09311L15.18 6.75147ZM7 11.25H9V9.75H7V11.25ZM9 11.25H12V9.75H9V11.25ZM7 14.25H9V12.75H7V14.25ZM9 14.25H12V12.75H9V14.25Z" fill="#1E293B"/>
</g>
</svg>
