<svg width="32" height="32" viewBox="0 0 32 32" fill="none" xmlns="http://www.w3.org/2000/svg">
<g id="ic/earning">
<path id="Vector" opacity="0.4" d="M13.32 23.9734C19.2037 23.9734 23.9733 19.2037 23.9733 13.32C23.9733 7.43635 19.2037 2.66669 13.32 2.66669C7.43632 2.66669 2.66666 7.43635 2.66666 13.32C2.66666 19.2037 7.43632 23.9734 13.32 23.9734Z" fill="#EC4899"/>
<g id="Vector_2">
<path d="M29.2933 21.32C29.2933 25.72 25.72 29.2933 21.32 29.2933C18.6 29.2933 16.2133 27.9333 14.7733 25.8667C20.5867 25.2133 25.2133 20.5867 25.8667 14.7733C27.9333 16.2133 29.2933 18.6 29.2933 21.32Z" fill="#EC4899"/>
<path d="M8.384 11.5599H9.10933C9.10933 10.3517 9.54074 9.45847 10.4036 8.88026C11.2664 8.29342 12.3994 8 13.8027 8C15.2059 8 16.3674 8.28047 17.2871 8.84142C18.2068 9.40237 18.6667 10.1834 18.6667 11.1845C18.6667 11.2621 18.6335 11.3312 18.5671 11.3916C18.5102 11.4434 18.4391 11.4693 18.3538 11.4693H15.4524C15.1775 11.4693 14.9831 11.3441 14.8693 11.0939C14.6987 10.7141 14.3621 10.5243 13.8596 10.5243C13.1579 10.5243 12.8071 10.8695 12.8071 11.5599H14.144C14.2483 11.5599 14.3384 11.5944 14.4142 11.6634C14.4901 11.7325 14.528 11.8145 14.528 11.9094V13.411C14.528 13.5059 14.4901 13.5879 14.4142 13.657C14.3384 13.726 14.2483 13.7605 14.144 13.7605H12.8071C12.8071 14.4595 13.1579 14.8091 13.8596 14.8091C14.3621 14.8091 14.6987 14.6192 14.8693 14.2395C14.9831 13.9892 15.1775 13.8641 15.4524 13.8641H18.3538C18.4391 13.8641 18.5102 13.8943 18.5671 13.9547C18.6335 14.0065 18.6667 14.0712 18.6667 14.1489C18.6667 15.1499 18.2068 15.931 17.2871 16.4919C16.3674 17.0529 15.2059 17.3333 13.8027 17.3333C12.3994 17.3333 11.2664 17.0442 10.4036 16.466C9.54074 15.8792 9.10933 14.9817 9.10933 13.7735V13.7605H8.384C8.2797 13.7605 8.18963 13.726 8.11378 13.657C8.03793 13.5879 8 13.5059 8 13.411V11.9094C8 11.8145 8.03793 11.7325 8.11378 11.6634C8.18963 11.5944 8.2797 11.5599 8.384 11.5599Z" fill="#EC4899"/>
</g>
</g>
</svg>
