<svg width="32" height="32" viewBox="0 0 32 32" fill="none" xmlns="http://www.w3.org/2000/svg">
<g id="icon">
<rect width="32" height="32" fill="white"/>
<g id="&#240;&#159;&#166;&#134; emoji &#34;waving hand sign&#34;">
<path id="Vector" d="M10.3197 24.1502C10.0934 24.139 9.91105 24.1213 9.67819 24.0661C9.44532 24.0109 9.26296 23.9931 9.07405 23.9314C8.65227 23.8145 8.2679 23.6471 7.87699 23.4358C7.10171 23.057 6.4321 22.4828 5.87472 21.7571C5.32389 21.0753 4.92923 20.2355 4.76089 19.4069C4.65147 18.9739 4.6365 18.5718 4.61499 18.1257C4.62621 17.8994 4.64398 17.717 4.6552 17.4907C4.66643 17.2644 4.72815 17.0755 4.73937 16.8492L4.87498 17.458C4.90771 17.6778 4.97785 17.847 5.05454 18.0602C5.15741 18.4493 5.30424 18.8318 5.44452 19.1703C5.73163 19.8914 6.1001 20.5554 6.59389 21.1558C7.08767 21.7561 7.61887 22.306 8.27538 22.7923C8.57839 23.0168 8.92535 23.2347 9.27231 23.4526C9.42381 23.5648 9.61927 23.6705 9.81472 23.7762L10.3197 24.1502ZM10.4235 25.7522C10.3048 25.8598 10.1355 25.9299 9.96624 26.0001C9.79696 26.0702 9.67165 26.1338 9.49583 26.16C9.1947 26.2498 8.84961 26.3461 8.49143 26.3545C7.82557 26.4088 7.09611 26.3377 6.47888 26.1151C5.81769 25.8991 5.21823 25.4941 4.78149 24.9751C4.56639 24.7376 4.34475 24.4561 4.16706 24.168C4.10346 24.0427 4.03332 23.8735 3.96318 23.7042C3.94354 23.5723 3.87995 23.447 3.85376 23.2712C4.00527 23.3834 4.11281 23.5022 4.21382 23.577C4.36532 23.6892 4.47287 23.808 4.57387 23.8828C4.82637 24.0698 5.03492 24.2634 5.28088 24.4065C5.77934 24.7366 6.27126 25.0228 6.83799 25.208C7.36077 25.3997 7.96491 25.5343 8.51855 25.6316C8.79537 25.6802 9.10959 25.6784 9.43037 25.7204C9.56878 25.7448 9.74459 25.7186 9.883 25.7429C10.1093 25.7541 10.2412 25.7345 10.4235 25.7522ZM17.1756 2.9109C17.4019 2.92213 17.5908 2.98385 17.8237 3.03902C18.0565 3.0942 18.2455 3.15592 18.4344 3.21764C18.8627 3.3785 19.2471 3.5459 19.638 3.75725C20.4198 4.17996 21.0959 4.79812 21.6094 5.53038C22.1228 6.26264 22.4735 7.10899 22.5979 7.94412C22.6634 8.38367 22.6783 8.7858 22.6559 9.23844C22.6447 9.46476 22.6269 9.64712 22.5717 9.87998C22.5165 10.1128 22.4988 10.2952 22.437 10.4841L22.3014 9.87531C22.2687 9.65554 22.2425 9.47972 22.1658 9.2665L21.8572 8.09937C21.6141 7.37179 21.239 6.66384 20.7827 6.01294C20.3263 5.36205 19.7951 4.81215 19.1825 4.31931C18.873 4.0509 18.526 3.833 18.2165 3.5646C18.065 3.45238 17.8695 3.3467 17.674 3.24103L17.1756 2.9109ZM20.9734 2.16553C21.1558 2.1833 21.2942 2.20762 21.4392 2.27589C21.5776 2.3002 21.7665 2.36192 21.9114 2.43019C22.2013 2.56673 22.4913 2.70327 22.7877 2.88376C23.3367 3.25129 23.8108 3.71982 24.1223 4.30245C24.4776 4.87853 24.6637 5.52475 24.674 6.19716C24.6759 6.51139 24.6338 6.83216 24.5917 7.15294C24.5674 7.29135 24.5057 7.48026 24.4814 7.61867C24.4131 7.76362 24.3888 7.90203 24.2766 8.05353L24.2111 7.61399L24.1456 7.17445C24.0998 6.86677 24.0166 6.60959 23.9773 6.34586C23.8043 5.78755 23.6378 5.27319 23.346 4.82243C23.0477 4.32771 22.7185 3.92744 22.3388 3.48977C22.1303 3.29618 21.9152 3.05865 21.7066 2.86506C21.5991 2.74629 21.4981 2.67147 21.3466 2.55925C21.2259 2.35257 21.0744 2.24035 20.9734 2.16553Z" fill="#42ADE2"/>
<path id="Vector_2" d="M5.6417 11.1435C4.82153 11.67 4.67097 12.7707 5.19749 13.5909L12.4575 24.326L15.3183 22.4173L8.05171 11.6382C7.52519 10.818 6.45532 10.573 5.6417 11.1435ZM21.5588 18.163L24.5823 16.1402L16.2889 3.89656C15.7184 3.08294 14.6046 2.84447 13.747 3.42149C12.9334 3.99197 12.6949 5.10579 13.272 5.96337L21.5588 18.163Z" fill="#FFDD67"/>
<path id="Vector_3" d="M13.7846 3.371C13.7032 3.42804 13.6218 3.48509 13.547 3.58609C14.3494 3.24194 15.2874 3.50659 15.8008 4.23885L24.0942 16.4824L24.6264 16.1336L16.333 3.89002C15.7559 3.03245 14.6421 2.79398 13.7846 3.371Z" fill="#EBA352"/>
<path id="Vector_4" d="M15.3118 22.3732L18.454 20.2428L9.9895 7.75515C9.41248 6.89758 8.2042 6.62825 7.34663 7.20527C6.48905 7.78229 6.26368 8.98402 6.8407 9.8416L15.3118 22.3732Z" fill="#FFDD67"/>
<path id="Vector_5" d="M7.35308 7.24928C7.27171 7.30633 7.19035 7.36338 7.11554 7.46438C7.91794 7.12022 8.94385 7.37179 9.46382 8.148L14.7141 15.9475L15.7662 16.3749L9.99595 7.79917C9.41238 6.89764 8.25461 6.66571 7.35308 7.24928Z" fill="#EBA352"/>
<path id="Vector_6" d="M17.7694 19.2665L20.9117 17.1361L12.4472 4.64845C11.8701 3.79087 10.6619 3.52154 9.81084 4.14251C8.95326 4.71954 8.72789 5.92127 9.30491 6.77884L17.7694 19.2665Z" fill="#FFDD67"/>
<path id="Vector_7" d="M9.80426 4.09858C9.7229 4.15563 9.64808 4.25663 9.56672 4.31368C10.3691 3.96952 11.395 4.22109 11.915 4.9973L17.8564 13.8171L18.9085 14.2445L12.4471 4.64847C11.8636 3.74694 10.6618 3.52156 9.80426 4.09858ZM5.64172 11.1435C5.56035 11.2005 5.47899 11.2575 5.40418 11.3586C6.16262 11.0209 7.05667 11.2921 7.52615 12.031L11.8505 18.4408L12.9026 18.8682L8.05827 11.6821C7.52521 10.818 6.45534 10.573 5.64172 11.1435Z" fill="#EBA352"/>
<path id="Vector_8" d="M27.7741 6.49919C26.4499 5.75291 24.6665 7.05191 24.1708 10.3606C23.8388 12.6566 23.8491 13.329 22.5408 14.1978L21.5074 12.6893C21.5074 12.6893 9.92124 20.5703 10.5488 21.4653C10.5488 21.4653 12.7372 25.9018 15.6073 27.6759C19.8718 30.3655 28.1894 25.5773 27.3346 17.1231C26.8277 12.2114 29.1994 7.32029 27.7741 6.49919Z" fill="#FFDD67"/>
<g id="Group">
<path id="Vector_9" d="M27.7742 6.49918C27.5282 6.3561 27.2514 6.30747 26.9811 6.3028C27.0316 6.3402 27.1195 6.32711 27.17 6.36452C28.6392 7.17907 27.6236 9.71159 27.1906 11.9327C26.8241 13.6946 26.5519 15.4874 26.8886 17.1446C28.327 24.3886 21.5038 28.9543 16.9119 28.2903C21.4879 29.4509 28.9769 24.831 27.4927 17.2792C27.1561 15.6221 27.3973 13.9237 27.7948 12.0674C28.1838 9.85281 29.1994 7.32028 27.7742 6.49918Z" fill="#EBA352"/>
<path id="Vector_10" d="M22.9102 13.963C20.2308 14.6766 16.8136 19.1843 20.2617 23.0289C17.5543 19.029 20.5067 15.624 22.5099 14.2922C22.7035 14.0837 22.9102 13.963 22.9102 13.963Z" fill="#EBA352"/>
</g>
</g>
</g>
</svg>
