<svg width="138" height="48" viewBox="0 0 138 48" fill="none" xmlns="http://www.w3.org/2000/svg">
<g id="Cepron Logo" clip-path="url(#clip0_220_3440)">
<g id="Vector">
<path d="M24.8276 43.7381C25.8775 43.7812 26.879 44.1944 27.6572 44.9053C28.7656 45.7882 29.7382 46.8312 30.5434 48.0006C30.5793 47.7673 30.5666 47.5291 30.5061 47.301C30.4456 47.0729 30.3386 46.86 30.192 46.6758C29.4778 45.601 28.61 44.6381 27.6167 43.8183C27.0743 43.3788 26.4594 43.0387 25.8 42.8138C24.2489 42.3186 22.5869 42.2965 21.0233 42.7503C19.8074 43.0523 18.6183 43.4652 17.4002 43.749C16.1944 44.0291 15.7473 43.5615 15.9256 42.3315C15.9292 42.3053 15.9379 42.279 15.9408 42.252C16.0846 41.2528 16.1198 40.2409 16.0459 39.234C16.0671 38.7936 15.9571 38.3569 15.73 37.9799C15.5029 37.6029 15.169 37.3029 14.7713 37.1184C14.5111 37.0112 14.4814 36.812 14.5915 36.5538C14.7057 36.2821 14.8025 36.0033 14.8814 35.7192C14.9674 35.483 14.9725 35.2247 14.8958 34.9853C14.8191 34.7458 14.6651 34.5391 14.4582 34.3981C14.2249 34.2193 14.0104 34.0158 13.7821 33.829C13.6532 33.724 13.6517 33.627 13.7408 33.4869C13.9106 33.229 14.0647 32.961 14.2024 32.6844C14.7582 31.5347 14.5234 30.946 13.3227 30.5148C12.7206 30.296 12.1039 30.1216 11.4945 29.9239C11.3619 29.8809 11.2271 29.8729 11.3112 29.6372C11.8013 28.1318 12.3917 26.6614 13.0785 25.2361C14.1722 23.2399 14.5494 20.9254 14.1466 18.6821C13.988 17.9644 13.9741 17.222 14.1056 16.4989C14.2372 15.7757 14.5116 15.0865 14.9126 14.472C15.5131 13.6154 16.1755 12.8044 16.8944 12.0457C17.0326 11.8783 17.2139 11.7524 17.4183 11.6816C17.6228 11.6109 17.8426 11.598 18.0538 11.6444C20.7847 11.9841 23.5357 12.1323 26.287 12.088C26.7768 12.0829 27.2674 12.088 27.7681 12.088L27.3616 12.2047C25.2515 12.7456 23.3074 13.8043 21.7029 15.2862C20.0984 16.7681 18.8835 18.627 18.1668 20.697C16.549 25.034 16.5112 29.8081 18.0603 34.1704C18.6341 35.9731 19.6194 37.6153 20.9373 38.9654C22.2552 40.3155 23.869 41.3359 25.6493 41.9449C28.0009 42.7348 30.4935 43.0067 32.9586 42.7423C34.4659 42.6541 35.9531 42.35 37.3752 41.8391C37.4326 41.8294 37.4872 41.807 37.5352 41.7737C37.5831 41.7403 37.6232 41.6968 37.6526 41.6461C37.6819 41.5955 37.6999 41.5389 37.7052 41.4805C37.7105 41.4221 37.7029 41.3632 37.6831 41.308C37.4368 39.9745 37.201 38.6392 36.9759 37.3023C36.9331 37.0484 36.8614 37.0024 36.6136 37.0878C34.8184 37.7208 32.9098 37.9608 31.0151 37.7918C27.6478 37.4941 25.208 35.8221 23.9986 32.6282C22.6573 29.1671 22.6677 25.3231 24.0276 21.8693C24.493 20.5246 25.3135 19.333 26.401 18.4225C27.4884 17.512 28.8018 16.917 30.1999 16.7014C32.315 16.3103 34.4972 16.5382 36.4875 17.358C36.8085 17.4864 36.9049 17.431 36.981 17.0925C37.2752 15.7837 37.5868 14.4779 37.923 13.1801C38.0172 12.8211 37.9099 12.6891 37.5983 12.5665C36.7652 12.2388 35.8978 12.0073 35.0129 11.8764C34.3846 11.783 33.7535 11.7145 33.1231 11.6342C33.2689 11.5751 33.4228 11.5389 33.5796 11.527C37.3986 10.9866 41.1653 10.122 44.8395 8.9423C44.8927 8.93482 44.9438 8.91659 44.9898 8.8887C45.0358 8.86081 45.0757 8.82384 45.1071 8.78001C45.1385 8.73618 45.1608 8.68641 45.1726 8.63368C45.1844 8.58096 45.1854 8.52638 45.1757 8.47322C45.1634 6.71144 45.1757 4.94893 45.1627 3.18714C45.1627 2.91284 45.2475 2.81144 45.5076 2.77861C47.6815 2.50651 49.8496 2.22491 52.0205 1.9477C52.9302 1.83146 53.8401 1.71717 54.7502 1.60482C52.9734 1.44798 51.1995 1.34147 49.4293 1.22985C46.7482 1.06133 44.0714 0.89792 41.3932 0.719188C37.6252 0.465316 33.8571 0.14141 30.0796 0.00134277H27.1812C24.9645 0.0815896 22.7653 0.351512 20.5697 0.648425C17.2813 1.09246 13.9906 1.53333 10.6974 1.97104C7.40328 2.40437 4.1077 2.81947 0.813558 3.25134C0.546875 3.24694 0.283173 3.3083 0.0454559 3.43007C0.804861 3.50302 1.56064 3.53877 2.31643 3.58619C5.1811 3.76516 8.04578 3.94681 10.9105 4.13114C12.9877 4.26634 15.065 4.4086 17.1422 4.55791C19.632 4.74101 22.1226 4.91901 24.6174 5.00656C27.996 5.03986 31.3714 4.7868 34.7078 4.25005C36.6382 3.98961 41.1294 3.32794 41.4562 3.34982C41.1396 3.44101 35.1817 4.73591 32.5173 5.28888C30.1032 5.88647 27.6185 6.14474 25.1341 6.05633C23.6428 5.94836 22.1552 5.79881 20.6653 5.66531C18.4429 5.46615 16.2133 5.40341 13.9865 5.28377C13.6619 5.26626 13.6126 5.37861 13.6155 5.66531C13.6285 7.01054 13.6206 8.35504 13.622 9.70027C13.6801 10.1911 13.6961 10.6861 13.6698 11.1797C13.58 11.6466 13.0901 12.0282 12.8075 12.4666C12.0158 13.5739 11.4979 14.8554 11.297 16.2046C11.0961 17.5539 11.218 18.932 11.6525 20.2243C11.9319 21.0419 11.8941 21.9357 11.5467 22.7265C11.1561 23.6997 10.6467 24.6145 10.1699 25.5439C9.56432 26.5891 9.10284 27.7124 8.79818 28.8829C8.61043 29.4905 8.66845 30.1481 8.95963 30.7128C9.25082 31.2775 9.75164 31.7037 10.3532 31.8987C10.7442 32.0719 11.1555 32.1945 11.5771 32.2635C11.909 32.3146 11.88 32.4174 11.7503 32.6655C11.1365 33.8414 11.2945 34.5316 12.3409 35.3588C12.4008 35.4133 12.4655 35.4622 12.5343 35.5047C12.5776 35.5204 12.617 35.5454 12.6499 35.5779C12.6827 35.6103 12.7081 35.6496 12.7244 35.6929C12.7407 35.7362 12.7476 35.7826 12.7444 35.8288C12.7412 35.875 12.7281 35.92 12.7061 35.9607C12.6008 36.2924 12.5327 36.635 12.5032 36.982C12.4549 37.2009 12.4887 37.43 12.5981 37.6253C12.7075 37.8206 12.8849 37.9682 13.0959 38.0398C13.3442 38.1431 13.5627 38.3077 13.7312 38.5183C13.8997 38.7289 14.0129 38.9788 14.0604 39.245C14.2408 40.1425 14.2782 41.0632 14.1713 41.9726C14.112 42.5479 14.1266 43.1286 14.2147 43.7001C14.2572 44.1205 14.4487 44.5115 14.7541 44.8014C15.0595 45.0913 15.4584 45.2608 15.8778 45.2788C16.2376 45.308 16.5995 45.2963 16.9567 45.2438C18.0854 45.0391 19.2013 44.7682 20.2987 44.4326C21.7616 43.9583 23.2907 43.7239 24.8276 43.7381ZM42.3041 12.3448C41.7721 12.3453 41.2522 12.5047 40.8102 12.8028C40.3681 13.1008 40.0238 13.5241 39.8208 14.0191C39.6177 14.5142 39.565 15.0587 39.6694 15.5839C39.7737 16.1091 40.0304 16.5913 40.407 16.9696C40.7836 17.3479 41.2632 17.6053 41.785 17.7092C42.3069 17.8132 42.8477 17.7589 43.339 17.5534C43.8302 17.348 44.25 17.0004 44.545 16.5548C44.8401 16.1091 44.9973 15.5854 44.9967 15.0498C44.9975 14.6939 44.9283 14.3413 44.7932 14.0124C44.6581 13.6835 44.4597 13.3847 44.2094 13.1333C43.9592 12.8818 43.662 12.6827 43.335 12.5474C43.008 12.4121 42.6576 12.3432 42.3041 12.3448ZM43.7859 16.5818C43.5337 16.1436 43.2258 15.7405 42.87 15.3825C43.4497 15.1702 43.6707 14.8718 43.5946 14.4531C43.5091 14.0022 43.2359 13.8155 42.6388 13.8074C42.2765 13.8023 41.9193 13.8133 41.5599 13.8031C41.3736 13.7972 41.3019 13.8563 41.3041 14.0533C41.3128 14.8558 41.3091 15.6626 41.3041 16.4665C41.3041 16.6037 41.3244 16.7 41.4954 16.7007C41.6664 16.7014 41.7026 16.6278 41.6997 16.4819C41.6946 16.2141 41.6997 15.9457 41.6997 15.6794C41.6997 15.5634 41.6722 15.4313 41.8599 15.4219C42.2164 15.4036 42.5533 15.4109 42.7656 15.7779C42.8997 16.0091 43.0707 16.2156 43.2004 16.4527C43.2375 16.5386 43.3005 16.6105 43.3805 16.6583C43.4605 16.7061 43.5534 16.7273 43.646 16.7189C43.4344 16.8981 43.1897 17.0335 42.926 17.1173C42.6623 17.2011 42.3848 17.2317 42.1093 17.2073C41.8339 17.1829 41.5659 17.104 41.3208 16.9751C41.0756 16.8463 40.8582 16.67 40.6809 16.4563C40.317 16.0249 40.1357 15.4671 40.1758 14.9025C40.2158 14.338 40.4742 13.8118 40.8953 13.4369C41.3165 13.062 41.8669 12.8683 42.4283 12.8973C42.9897 12.9263 43.5175 13.1758 43.8982 13.5922C44.2771 14.0037 44.4781 14.5498 44.457 15.1104C44.4359 15.6711 44.1945 16.2003 43.7859 16.5818ZM41.6961 14.7682C41.678 14.1284 41.678 14.1284 42.3171 14.1416C42.4764 14.1324 42.6362 14.1336 42.7953 14.1452C42.904 14.1499 43.0066 14.1966 43.0819 14.2755C43.1572 14.3545 43.1994 14.4596 43.1997 14.5691C43.2085 14.6781 43.176 14.7864 43.1089 14.8723C43.0417 14.9582 42.9447 15.0154 42.8374 15.0323C42.5223 15.0841 42.2025 15.101 41.8838 15.0826C41.7475 15.0863 41.6903 15.0206 41.6954 14.8886C41.699 14.8485 41.6983 14.8105 41.6968 14.7682H41.6961Z" fill="#0E809E"/>
<path d="M137.478 12.0902C135.975 12.0851 134.471 12.112 132.97 12.061C132.367 12.0406 132.281 12.2704 132.283 12.8C132.307 19.6822 132.206 26.5674 132.727 33.4387C132.736 33.5598 132.821 33.7305 132.61 33.8035C132.565 33.7438 132.526 33.6803 132.492 33.6138C129.594 26.3245 125.635 19.5633 122.158 12.5629C122.108 12.4097 122.009 12.2775 121.876 12.1869C121.743 12.0964 121.585 12.0526 121.425 12.0624C119.672 12.0872 117.919 12.0821 116.165 12.0624C115.775 12.0624 115.606 12.1835 115.651 12.5789C115.657 12.6798 115.657 12.7809 115.651 12.8817C115.651 22.4388 115.646 31.9955 115.635 41.5517C115.635 42.2309 115.812 42.4074 116.469 42.3782C117.719 42.3235 118.973 42.3388 120.225 42.3731C120.743 42.3877 120.918 42.2396 120.906 41.702C120.872 40.2429 120.896 38.7773 120.895 37.3147C120.887 32.095 120.881 26.876 120.647 21.6607C120.618 21.0333 120.574 20.4067 120.534 19.629C120.627 19.7216 120.711 19.8233 120.784 19.9325C123.747 27.5515 127.876 34.5958 131.5 41.8865C131.645 42.1718 131.782 42.3768 132.162 42.3709C133.94 42.3418 135.717 42.3432 137.496 42.3337C137.496 33.989 137.496 25.6446 137.496 17.3004C137.499 15.5685 137.485 13.8286 137.478 12.0902Z" fill="#0E809E"/>
<path d="M78.6497 19.0133C77.9425 15.098 74.973 12.5862 70.6789 12.0763C67.2888 11.7297 63.8691 11.8093 60.4986 12.3134C59.745 12.4126 59.5863 12.6709 59.5914 13.3887C59.6247 18.0525 59.6081 22.717 59.6081 27.3808C59.6081 32.146 59.6182 36.9105 59.595 41.6794C59.595 42.2498 59.7443 42.4038 60.3044 42.3877C61.7305 42.3469 63.1602 42.3388 64.5855 42.3877C65.2297 42.4111 65.3652 42.2002 65.3594 41.5852C65.329 38.3083 65.3594 35.0298 65.334 31.7528C65.334 31.2159 65.4732 31.0802 66.0094 31.1218C67.6326 31.2654 69.2679 31.1715 70.8644 30.8431C77.7302 29.3644 79.5555 24.0258 78.6497 19.0133ZM73.0933 21.8832C72.7151 25.0486 70.7238 26.6324 67.1514 26.6119C65.3471 26.6017 65.3471 26.6017 65.3471 24.7983C65.3471 22.2764 65.3543 19.7552 65.3398 17.2333C65.3398 16.8291 65.3891 16.5636 65.8608 16.5125C67.0498 16.3221 68.2618 16.3312 69.4477 16.5395C70.036 16.6485 70.5972 16.8734 71.099 17.2011C71.6009 17.5289 72.0335 17.9531 72.3722 18.4496C72.7109 18.946 72.9489 19.5048 73.0726 20.094C73.1964 20.6832 73.2034 21.2912 73.0933 21.8832Z" fill="#0E809E"/>
<path d="M112.986 29.7364C112.539 24.624 109.513 20.5321 104.212 20.0149C100.094 19.6137 95.7711 21.3558 93.8559 25.8933C92.659 28.7801 92.4238 31.9797 93.1857 35.0123C94.1088 39.0064 96.49 41.7479 100.584 42.5635C104.613 43.366 108.167 42.3724 110.789 39.0057C112.532 36.7675 113.045 34.1077 112.993 31.3209C112.992 30.7942 113.032 30.2617 112.986 29.7364ZM106.537 35.4172C106.354 35.9396 106.103 36.4356 105.792 36.8923C105.498 37.3897 105.082 37.8023 104.584 38.09C104.085 38.3777 103.521 38.5307 102.946 38.5343C102.372 38.5378 101.806 38.3917 101.304 38.1101C100.802 37.8285 100.381 37.4211 100.081 36.9273C99.0459 35.2757 98.5531 33.338 98.6725 31.3888C98.5994 29.646 98.9698 27.9133 99.7486 26.3551C99.9913 25.8265 100.358 25.3654 100.818 25.0118C101.278 24.6581 101.816 24.4226 102.386 24.3256C103.083 24.1952 103.803 24.2916 104.441 24.601C105.08 24.9103 105.603 25.4164 105.937 26.0458C106.558 27.0848 106.939 28.2511 107.052 29.4585C107.349 31.4575 107.173 33.499 106.538 35.4164L106.537 35.4172Z" fill="#0E809E"/>
<path d="M56.1212 24.9508C55.6787 23.7771 54.9543 22.7319 54.0128 21.9087C53.0713 21.0854 51.942 20.5097 50.7256 20.233C48.5171 19.6598 46.177 19.9133 44.1402 20.9465C42.1034 21.9797 40.5085 23.7223 39.6519 25.8503C38.335 28.8815 38.082 32.2737 38.9345 35.469C39.2686 37.1006 40.0517 38.6047 41.1944 39.8097C42.3371 41.0147 43.7933 41.8718 45.3967 42.2834C48.8344 43.2442 52.2379 42.8225 55.5908 41.7355C56.0545 41.5852 56.0596 41.3036 55.9784 40.9243C55.7784 39.9891 55.5632 39.056 55.4052 38.1135C55.3219 37.6181 55.1639 37.5073 54.6734 37.6758C53.0056 38.2323 51.2514 38.4795 49.4959 38.4053C46.4011 38.2893 44.504 36.6632 44.041 33.8195C43.9439 33.2213 44.1475 33.1469 44.6504 33.152C46.6069 33.1725 48.5583 33.1601 50.5119 33.1601C52.4908 33.1601 54.4698 33.1491 56.4487 33.1681C56.8769 33.1725 57.0596 33.0732 57.1009 32.6012C57.4153 30.0087 57.0784 27.3783 56.1212 24.9508ZM51.2611 29.1309C50.138 29.1076 49.0148 29.1229 47.8894 29.1229C46.7641 29.1229 45.6431 29.1083 44.5178 29.1302C44.0729 29.139 43.9584 28.9982 44.0388 28.5561C44.1946 27.4578 44.6052 26.4118 45.2373 25.5031C45.5914 24.9884 46.0768 24.5795 46.6424 24.3193C47.208 24.059 47.8328 23.9572 48.451 24.0244C49.0692 24.0916 49.658 24.3254 50.1554 24.7012C50.6527 25.0769 51.0402 25.5808 51.2771 26.1596C51.6055 26.9222 51.7872 27.7406 51.8125 28.5714C51.8336 29.0098 51.6829 29.1397 51.2611 29.1309Z" fill="#0E809E"/>
<path d="M91.9371 19.958C91.083 19.9189 90.2313 20.0769 89.4471 20.42C88.6629 20.763 87.967 21.2819 87.4126 21.9372C86.8677 22.635 86.3642 23.3645 85.9046 24.1221C85.8401 23.0818 85.7655 22.0415 85.7162 21.0005C85.6959 20.5628 85.5358 20.3972 85.0728 20.4096C83.8206 20.4431 82.567 20.4409 81.3149 20.4096C80.8279 20.3979 80.6518 20.527 80.6888 21.0435C80.7613 22.0736 80.8047 23.1088 80.8083 24.1425C80.8262 29.9699 80.8313 35.797 80.8236 41.6239C80.8236 42.2141 80.9685 42.4038 81.5692 42.3841C82.9706 42.3396 84.3771 42.3243 85.7778 42.3877C86.5155 42.4213 86.6843 42.1959 86.6778 41.4714C86.6437 37.7633 86.6307 34.0545 86.6901 30.347C86.7307 27.7981 88.127 26.0487 90.3096 25.6052C90.9284 25.4995 91.5593 25.486 92.182 25.5651C92.6168 25.6066 92.748 25.468 92.7422 25.0369C92.7226 23.6245 92.698 22.21 92.7516 20.7991C92.7762 20.1426 92.5009 19.9813 91.9371 19.958Z" fill="#0E809E"/>
</g>
</g>
<defs>
<clipPath id="clip0_220_3440">
<rect width="137.455" height="48" fill="white" transform="translate(0.0454559)"/>
</clipPath>
</defs>
</svg>
