<svg width="24" height="24" viewBox="0 0 24 24" fill="none" xmlns="http://www.w3.org/2000/svg">
<g id="ic/sold course">
<path id="Vector" opacity="0.4" d="M18.38 12.84V17.77C18.38 19.04 17.39 20.4 16.2 20.8L13.01 21.86C12.45 22.05 11.54 22.05 10.99 21.86L7.8 20.8C6.6 20.4 5.62 19.04 5.62 17.77L5.63 12.84L10.05 15.72C11.13 16.43 12.91 16.43 13.99 15.72L18.38 12.84Z" fill="white"/>
<path id="Vector_2" d="M19.98 6.46L13.99 2.53C12.91 1.82 11.13 1.82 10.05 2.53L4.03002 6.46C2.10002 7.71 2.10002 10.54 4.03002 11.8L5.63002 12.84L10.05 15.72C11.13 16.43 12.91 16.43 13.99 15.72L18.38 12.84L19.75 11.94V15C19.75 15.41 20.09 15.75 20.5 15.75C20.91 15.75 21.25 15.41 21.25 15V10.08C21.65 8.79 21.24 7.29 19.98 6.46Z" fill="white"/>
</g>
</svg>
