<svg width="32" height="32" viewBox="0 0 32 32" fill="none" xmlns="http://www.w3.org/2000/svg">
<g id="ic/sold course">
<path id="Vector" opacity="0.4" d="M24.5066 17.12V23.6933C24.5066 25.3867 23.1866 27.2 21.6 27.7333L17.3466 29.1467C16.6 29.4 15.3866 29.4 14.6533 29.1467L10.4 27.7333C8.79995 27.2 7.49329 25.3867 7.49329 23.6933L7.50662 17.12L13.4 20.96C14.84 21.9067 17.2133 21.9067 18.6533 20.96L24.5066 17.12Z" fill="#22C55E"/>
<path id="Vector_2" d="M26.64 8.61333L18.6534 3.37333C17.2134 2.42666 14.84 2.42666 13.4 3.37333L5.37336 8.61333C2.80003 10.28 2.80003 14.0533 5.37336 15.7333L7.50669 17.12L13.4 20.96C14.84 21.9067 17.2134 21.9067 18.6534 20.96L24.5067 17.12L26.3334 15.92V20C26.3334 20.5467 26.7867 21 27.3334 21C27.88 21 28.3334 20.5467 28.3334 20V13.44C28.8667 11.72 28.32 9.72 26.64 8.61333Z" fill="#22C55E"/>
</g>
</svg>
