<svg width="24" height="24" viewBox="0 0 24 24" fill="none" xmlns="http://www.w3.org/2000/svg">
<g id="ic/tag">
<path id="Vector" opacity="0.4" d="M14.9463 4.52336L14.9471 4.52414L19.4854 9.04241C19.4857 9.04268 19.4859 9.04295 19.4862 9.04322C21.1519 10.7188 21.1503 13.4223 19.4863 15.0863L15.0973 19.4753C15.0971 19.4755 15.0968 19.4758 15.0966 19.476C13.4211 21.1418 10.7174 21.1402 9.05345 19.4763L4.52345 14.9463C3.67297 14.0958 3.21584 12.9225 3.26936 11.7129C3.26937 11.7126 3.26939 11.7123 3.2694 11.712L3.50926 6.7149C3.50927 6.71472 3.50928 6.71454 3.50929 6.71437C3.59664 4.98138 4.98067 3.59768 6.72237 3.5193L6.72237 3.5193L6.72387 3.51923L11.7239 3.27923L11.726 3.27912C12.9226 3.21661 14.0952 3.67218 14.9463 4.52336Z" fill="#14B8A6" stroke="#14B8A6"/>
<path id="Vector_2" d="M9.50012 12.3801C11.0907 12.3801 12.3801 11.0907 12.3801 9.50012C12.3801 7.90954 11.0907 6.62012 9.50012 6.62012C7.90954 6.62012 6.62012 7.90954 6.62012 9.50012C6.62012 11.0907 7.90954 12.3801 9.50012 12.3801Z" fill="#14B8A6"/>
</g>
</svg>
