<svg width="32" height="32" viewBox="0 0 32 32" fill="none" xmlns="http://www.w3.org/2000/svg">
<g id="ic">
<path id="Vector" opacity="0.4" d="M16 7.06665V28.44C15.7734 28.44 15.5334 28.4 15.3467 28.2933L15.2934 28.2667C12.7334 26.8667 8.26669 25.4 5.37335 25.0133L4.98669 24.96C3.70669 24.8 2.66669 23.6 2.66669 22.32V6.21332C2.66669 4.62665 3.96002 3.42665 5.54669 3.55999C8.34669 3.78665 12.5867 5.19999 14.96 6.67999L15.2934 6.87999C15.4934 6.99999 15.7467 7.06665 16 7.06665Z" fill="#EAB308"/>
<g id="Vector_2">
<path d="M29.3333 6.22666V22.32C29.3333 23.6 28.2933 24.8 27.0133 24.96L26.5733 25.0133C23.6666 25.4 19.1866 26.88 16.6266 28.2933C16.4533 28.4 16.24 28.44 16 28.44V7.06666C16.2533 7.06666 16.5066 7 16.7066 6.88L16.9333 6.73333C19.3066 5.24 23.56 3.81333 26.36 3.57333H26.44C28.0266 3.44 29.3333 4.62666 29.3333 6.22666Z" fill="#EAB308"/>
<path d="M10.3333 12.32H7.33331C6.78665 12.32 6.33331 11.8667 6.33331 11.32C6.33331 10.7733 6.78665 10.32 7.33331 10.32H10.3333C10.88 10.32 11.3333 10.7733 11.3333 11.32C11.3333 11.8667 10.88 12.32 10.3333 12.32Z" fill="#EAB308"/>
<path d="M11.3333 16.32H7.33331C6.78665 16.32 6.33331 15.8667 6.33331 15.32C6.33331 14.7733 6.78665 14.32 7.33331 14.32H11.3333C11.88 14.32 12.3333 14.7733 12.3333 15.32C12.3333 15.8667 11.88 16.32 11.3333 16.32Z" fill="#EAB308"/>
</g>
</g>
</svg>
