<svg width="16" height="16" viewBox="0 0 16 16" fill="none" xmlns="http://www.w3.org/2000/svg">
<g id="ic/video">
<path id="Vector" d="M1.68004 4.74004H14.32M14.6667 10V6.00004C14.6667 2.66671 13.3334 1.33337 10 1.33337H6.00004C2.66671 1.33337 1.33337 2.66671 1.33337 6.00004V10C1.33337 13.3334 2.66671 14.6667 6.00004 14.6667H10C13.3334 14.6667 14.6667 13.3334 14.6667 10ZM6.50004 8.83337C6.50004 7.80671 7.22671 7.38671 8.11337 7.90004L9.50004 8.70004C10.3867 9.21337 10.3867 10.0534 9.50004 10.5667L8.11337 11.3667C7.22671 11.88 6.50004 11.46 6.50004 10.4334V8.83337Z" stroke="#475569" stroke-width="1.5" stroke-miterlimit="10" stroke-linecap="round" stroke-linejoin="round"/>
</g>
</svg>
